<svg xmlns="http://www.w3.org/2000/svg" width="580" height="155"><defs><style>@import url(https://fonts.googleapis.com/css?family=Heebo);.name{font-family:Heebo}:root{--space-1:#050A26;--space-2:#081040;--space-3:#101F73;--space-4:#1228A6;--space-5:#D94A4A;--space-6:white}.stroke{stroke:var(--space-1, orange)}.fill{fill:var(--space-6, red)}.text_fill{fill:var(--space-1, orange)}.telescope_fill{fill:var(--space-6)}</style><g id="name"><text x="115.195" class="name fill text_fill" dominant-baseline="text-before-edge" font-size="24.6" style="white-space:pre" text-anchor="middle" transform="translate(.095 36.906)">Minden-Lübbecke e.V.</text><text x="114.874" class="name fill text_fill" dominant-baseline="text-before-edge" font-size="33" style="white-space:pre" text-anchor="middle" transform="translate(.338 .49)">Schulsternwarte</text></g></defs><path d="M0 0h593.813v155.229H0z" class="fill"/><g fill-rule="evenodd" stroke-linecap="round"><path stroke-width="0" d="m-.31 1.34 5.22-16.38-.03-5.98-.21-7.1-10.66-12.2-9.65-9.28-12.61-.78-12.74 5.21-13.63 10.06-4.99 10.58-4.32 8.35 3.19 6.03 1.75 6.08L-36.03.15l21.34 2.48 5.68 1.72L-.41.41" class="fill" transform="translate(180.263 63.908)"/><path fill="none" d="M179.853 64.968c.54-2.12 3.98-8.55 4.49-13.63.52-5.07 1.9-10.97-1.4-16.81-3.31-5.83-10.7-15.46-18.43-18.2-7.73-2.73-20.86-1.89-27.98 1.78-7.11 3.68-12.54 13.58-14.71 20.27-2.18 6.69-5.6 14.79 1.65 19.89 7.26 5.1 32.49 9.81 41.87 10.71 9.38.89 12.06-4.46 14.41-5.35m2.08.85c.84-2.5 4.71-10.25 4.71-15s-1.01-7.63-4.7-13.5c-3.69-5.86-10.17-18.7-17.44-21.7-7.26-2.99-18.75-.16-26.14 3.74-7.38 3.89-15.84 12.63-18.16 19.64-2.33 7.01-3.22 17.17 4.2 22.43 7.43 5.26 30.8 8.8 40.33 9.14 9.53.33 14.31-6.11 16.84-7.13" class="stroke moon_stroke"/></g><g stroke-linecap="round"><path fill="none" d="M144.787 74.578c2.56-3.72 10.38-22.14 14.78-22.44 4.4-.29 9.89 17.19 11.6 20.66m-27.43.82c2.42-4.05 10.61-23.1 15.13-23.1 4.52 0 10.16 19.24 11.99 23.09" class="stroke telescope_stroke telescope_stand_stroke"/><path fill="none" d="M157.916 75.55c.3-4.24 1.94-21.86 2.06-26.2M156.706 75c.14-4.13 2.62-20.51 2.78-24.61" class="stroke telescope_stroke telescope_stand_stroke"/><path stroke-width="0" d="M159.574 41.914c.69-.22 1.33.36 1.86 1.04s1.11 2.27 1.32 3.04c.21.76.23.9-.04 1.57s-1.09 2.08-1.57 2.45c-.49.36-.72-.16-1.35-.26-.63-.09-1.86.38-2.43-.32-.57-.71-1.12-2.96-.97-3.88.15-.93 1.11-1.17 1.87-1.67.77-.49 2.23-1.09 2.73-1.3.5-.2.3-.08.26.08m-.55.68c.53.1 2.24.38 2.58 1.04.34.66-.16 1.78-.53 2.92-.38 1.14-1.36 3.44-1.73 3.92-.37.47.09-.94-.5-1.07-.6-.12-2.31 1-3.07.32-.76-.68-1.63-3.34-1.47-4.42.15-1.08 2-1.39 2.4-2.05.4-.66-.56-1.61.02-1.92.58-.32 3-.26 3.47.02.47.28-.58 1.61-.64 1.66" class="fill telescope_fill telescope_stand_fill"/><path fill="none" d="M158.374 42.884c.69-.06 2.14-.08 2.9.41.76.49 1.37 1.76 1.65 2.55.28.78.37 1.52.02 2.16-.35.65-1.51 1.44-2.12 1.72-.62.27-.97-.01-1.57-.08-.61-.06-1.66.13-2.08-.31-.42-.44-.61-1.6-.44-2.32.17-.72 1.03-1.31 1.45-2.01.43-.71.74-1.71 1.11-2.22.38-.51 1.29-.88 1.15-.85m-.19.81c.4-.23.59-.7.78-.33.19.37.4 1.32.36 2.54-.04 1.22-.42 4.02-.6 4.76-.17.75-.19-.45-.47-.28-.27.17-.57 1.29-1.16 1.33-.59.04-2.2-.21-2.35-1.1-.16-.89 1.21-3 1.43-4.24.22-1.25-.12-2.57-.13-3.22 0-.66-.12-.81.1-.71.21.09 1.14.99 1.2 1.27" class="stroke telescope_stroke telescope_stand_stroke"/><g fill-rule="evenodd"><path stroke-width="0" d="m133.378 46.71 50.8-13.77 5.16-1.7 2.66-4.64-4.2-8.14-4.5-4.68-8.17 4.39-37.22 19.77-6.45 5.92 3.38 2.44" class="fill telescope_fill telescope_tube_fill"/><path fill="none" d="M134.698 46.85c7.85-2.36 39.35-10.08 48.45-14.31 9.11-4.24 6.76-8.62 6.19-11.11-.57-2.5-.42-7.22-9.61-3.88-9.19 3.35-38.13 18.96-45.53 23.93-7.41 4.98.99 4.9 1.09 5.93m1.37 1.64c8.16-2.16 40.12-10.5 48.79-15.46 8.68-4.96 4.14-11.28 3.25-14.3-.89-3.01.66-7.64-8.6-3.8-9.26 3.85-39.73 21.75-46.95 26.87-7.22 5.13 3.27 3.22 3.62 3.88" class="stroke telescope_stroke telescope_tube_stroke"/></g><path fill="none" d="M182.034 14.242c-.01 1.53-1.14 6.31.24 9.34 1.37 3.02 6.57 7.36 8 8.83m-6.45-16.05c-.11 1.24-3.34 2.93-2.37 5.3.96 2.37 6.49 7.46 8.17 8.9" class="stroke telescope_stroke telescope_tube_stroke"/></g><g stroke-linecap="round"><path fill="none" d="M165.272 68.687c10.37-1.98 43.2-13.84 61.23-13.16 18.03.67 39.24 14.53 46.95 17.21m-109.51-4.89c10.31-2.22 43.53-14.46 61.73-13.95 18.19.5 39.54 13.88 47.44 16.98" class="stroke wiehen_stroke"/><g><path fill="none" d="M208.573 57.477c2.98-.02 13.92-.18 16.42-.17m-17.27-1.08c2.9.18 13.59 1.93 16.64 2.32" class="stroke wiehen_stroke wiehen_wilhelm_stroke"/><path fill="none" d="M210.73 57.307c.06-1.74.81-8.59.91-10.23m-2.05 12.55c.35-1.53 3.67-9.4 4.35-11.21M215.112 57.102c-.34-1.64-.63-8.24-.66-10.02m2.45 8.78c-.04-1.39.21-5.82-.3-7.24M220.227 57.492c-.42-1.72-1.87-8.97-2.25-10.69m3.89 9.65c.05-1.54-.67-7.09-1.5-8.46" class="stroke wiehen_stroke wiehen_wilhelm_stroke"/><path stroke-width="0" d="m209.37 45.913 9.42-1.12.66 2.58-6.83 3.19.29-5.62" class="fill wiehen_fill wiehen_wilhelm_fill"/><path fill="none" d="M211.15 45.883c3.63-.29 5.84.5 8.68 0m-8.68 0c2.21.07 4.2-.23 8.68 0m0 0c-1.1-.71 2.25.83.67.67m-.67-.67c.11-.45 1.15-1.38.67.67m0 0c.07.37-.11.59 0 1.35m0-1.35c.02.26.04.58 0 1.35m0 0c.27-.67-1.06 2.5-.67.68m.67-.68c1.69-.8.64-1-.67.68m0 0c-2.19 0-3.69-.08-8.68 0m8.68 0c-2.55-.11-4.71.02-8.68 0m0 0c.12 1.62-.01-.43-.67-.68m.67.68c-2.28 1.65-1.87 1.39-.67-.68m0 0c-.13-.57.08-.89 0-1.35m0 1.35c-.04-.29 0-.6 0-1.35m0 0c-.43-1.91-.03-1 .67-.67m-.67.67c-.56-2.08 1.65.44.67-.67M212.574 45.204c.64-.34 3.16-1.66 3.82-2.34m-1.95 1.12c.61-.58 1.15-2.31 1.47-2.62" class="stroke wiehen_stroke wiehen_wilhelm_stroke"/><path fill="none" d="M218.709 46.714c-.1-.81-1.77-5.3-2.14-6.38m1.14 5.96c-.11-.63-1.28-3.87-1.54-4.72" class="stroke wiehen_stroke wiehen_wilhelm_stroke"/></g></g><g stroke-linecap="round"><path fill="none" d="M39.773 72.97c7.65-2.82 22.16-17.2 45.91-17.46 23.74-.27 80.56 13.19 96.57 15.87m-143.82 1.04c7.54-3.18 22.87-18.57 46.72-18.55 23.86.03 80.3 15.56 96.41 18.7" class="stroke weser_stroke"/><g><path fill="none" d="M99.443 60.173c-.18-3.38.25-18.16.08-21.6m-1.65 21c-.4-3.15.36-15.94.86-19.6" class="stroke weser_stroke weser_tower_stroke"/><path fill="none" d="M94.366 51.027c1.44-.05 6.66.89 8.09.84m-9.38-2.03c1.84-.46 10.19-.05 11.68.28M96.459 44.686c.85-.01 4.25-.07 5.1-.08m-5.1.08c.85-.01 4.25-.07 5.1-.08" class="stroke weser_stroke weser_tower_stroke"/></g></g><path fill="none" stroke-linecap="round" d="M10 72.69c50.13-.05 250.65-.27 300.78-.33M10 72.69c50.13-.05 250.65-.27 300.78-.33" class="stroke ground_stroke"/><use href="#name" style="display:block" transform="translate(41 75)"/><use href="#name" style="display:block" transform="translate(331 8)"/></svg>