<svg version="1.1" xmlns="http://www.w3.org/2000/svg" viewBox="0 0 593.812915772755 155.22887697548055"
  width="593.812915772755" height="155.22887697548055">
  <!-- svg-source:excalidraw -->
  <defs>
    <style type="text/css">
      @import url('https://fonts.googleapis.com/css?family=Heebo');

      .name {
        font-family: Heebo; // Roboto, Cinzel, Virgil, Segoe UI Emoji;
      }

      :root {
        --space-1: #050A26;
        --space-2: #081040;
        --space-3: #101F73;
        --space-4: #1228A6;
        --space-5: #D94A4A;
        --space-6: white;
      }

      .stroke {
        stroke: var(--space-1, orange);
      }

      .fill {
        fill: var(--space-6, red);
      }

      .text_fill {
        fill: var(--space-1, orange);
      }

      .background_fill {
        fill: white;
      }
      .moon_fill {
        /* fill: #f3ff16; */
      }

      .telescope_fill {
        fill: var(--space-6);
      }

      .name_fill {
        fill: var(--space-1);
      }

      .name_stroke {
        stroke: var(--space-1);
      }

      #name_below {
        display: block;
      }

      #name_right {
        display: block;
      }

      @font-face {
        font-family: "Virgil";
        src: url("https://excalidraw.com/Virgil.woff2");
      }

      @font-face {
        font-family: "Cascadia";
        src: url("https://excalidraw.com/Cascadia.woff2");
      }
    </style>

    <g id="schulsternwarte" stroke-linecap="round" fill-rule="nonzero" font-size="9pt" stroke-width="0.25mm"
      class="fill name_fill stroke name_stroke">
      <path
        d="M 51.514 24.414 L 41.992 24.414 A 16.285 16.285 0 0 0 41.517 20.408 A 13.565 13.565 0 0 0 40.308 17.285 A 11.47 11.47 0 0 0 36.146 12.937 A 14.34 14.34 0 0 0 35.156 12.378 A 14.837 14.837 0 0 0 31.634 11.129 Q 29.278 10.596 26.367 10.596 A 27.027 27.027 0 0 0 22.943 10.8 Q 21.225 11.02 19.778 11.476 A 13.465 13.465 0 0 0 18.14 12.109 A 12.688 12.688 0 0 0 15.621 13.639 A 9.578 9.578 0 0 0 13.33 16.211 A 10.915 10.915 0 0 0 11.808 21.074 A 13.41 13.41 0 0 0 11.768 22.119 A 8.7 8.7 0 0 0 13.477 27.417 Q 15.186 29.736 18.848 31.592 A 37.529 37.529 0 0 0 21.896 32.956 Q 24.689 34.07 28.32 35.107 A 79.218 79.218 0 0 1 33.958 36.895 Q 36.683 37.88 38.968 38.976 A 39.015 39.015 0 0 1 41.553 40.332 Q 46.344 43.089 48.813 46.768 A 15.859 15.859 0 0 1 49.194 47.363 A 16.776 16.776 0 0 1 51.419 53.628 A 21.942 21.942 0 0 1 51.66 56.934 A 18.18 18.18 0 0 1 50.766 62.72 A 15.994 15.994 0 0 1 48.584 66.992 A 18.594 18.594 0 0 1 42.876 72.16 A 23.821 23.821 0 0 1 39.941 73.633 Q 34.538 75.908 27.294 75.975 A 47.705 47.705 0 0 1 26.856 75.977 A 34.946 34.946 0 0 1 17.163 74.609 A 28.585 28.585 0 0 1 8.521 70.508 A 21.028 21.028 0 0 1 2.319 63.745 A 17.336 17.336 0 0 1 0.184 57.286 A 22.157 22.157 0 0 1 0 54.395 L 9.473 54.395 A 15.885 15.885 0 0 0 9.744 57.403 A 11.518 11.518 0 0 0 10.889 60.693 A 12.382 12.382 0 0 0 14.746 65.039 A 16.679 16.679 0 0 0 19.353 67.28 A 19.322 19.322 0 0 0 20.313 67.554 A 25.958 25.958 0 0 0 26.429 68.356 A 28.771 28.771 0 0 0 26.856 68.359 Q 30.895 68.359 33.903 67.426 A 15.405 15.405 0 0 0 35.181 66.968 A 13.433 13.433 0 0 0 37.904 65.486 A 10.22 10.22 0 0 0 40.356 63.037 A 9.811 9.811 0 0 0 42.071 58.35 A 12.514 12.514 0 0 0 42.139 57.031 A 13.338 13.338 0 0 0 41.887 54.371 A 9.523 9.523 0 0 0 40.723 51.318 A 8.561 8.561 0 0 0 39.22 49.504 Q 38.44 48.775 37.406 48.096 A 20.12 20.12 0 0 0 35.645 47.07 A 33.388 33.388 0 0 0 33.055 45.875 Q 29.877 44.556 25.244 43.213 Q 19.971 41.699 15.747 39.771 A 37.031 37.031 0 0 1 11.597 37.563 A 28.681 28.681 0 0 1 8.496 35.352 A 18.295 18.295 0 0 1 5.035 31.628 A 16.383 16.383 0 0 1 3.857 29.639 A 15.201 15.201 0 0 1 2.403 24.769 A 19.347 19.347 0 0 1 2.246 22.266 A 17.128 17.128 0 0 1 5.249 12.329 Q 8.252 7.959 13.672 5.444 Q 19.092 2.93 26.367 2.93 Q 34.424 2.93 40.039 5.981 A 23.878 23.878 0 0 1 45.247 9.748 A 20.152 20.152 0 0 1 48.584 13.94 A 20.094 20.094 0 0 1 51.514 24.414 Z M 331.201 50.439 L 331.201 48.34 A 37.478 37.478 0 0 1 331.788 41.536 Q 332.554 37.386 334.321 33.998 A 23.44 23.44 0 0 1 334.497 33.667 A 26.031 26.031 0 0 1 338.564 28.021 A 21.993 21.993 0 0 1 343.091 24.39 A 21.341 21.341 0 0 1 354.297 21.191 A 27.966 27.966 0 0 1 359.602 21.666 Q 363.713 22.461 366.724 24.585 Q 371.533 27.979 373.804 33.813 A 32.887 32.887 0 0 1 375.728 41.496 A 42.546 42.546 0 0 1 376.074 47.021 L 376.074 51.074 L 336.621 51.074 L 336.621 43.75 L 366.943 43.75 L 366.943 43.066 A 23.749 23.749 0 0 0 365.527 36.206 A 12.436 12.436 0 0 0 361.621 30.688 A 9.143 9.143 0 0 0 358.332 29.025 Q 356.544 28.516 354.297 28.516 A 11.906 11.906 0 0 0 347.046 30.835 A 13.413 13.413 0 0 0 343.788 34.329 A 18.567 18.567 0 0 0 342.114 37.573 A 22.848 22.848 0 0 0 340.85 42.057 Q 340.462 44.203 340.364 46.664 A 42.519 42.519 0 0 0 340.332 48.34 L 340.332 50.439 A 23.672 23.672 0 0 0 340.986 56.093 A 20.311 20.311 0 0 0 342.188 59.595 A 16.027 16.027 0 0 0 346.075 65.006 A 15.549 15.549 0 0 0 347.559 66.187 A 13.548 13.548 0 0 0 353.708 68.512 A 17.582 17.582 0 0 0 355.957 68.652 A 19.593 19.593 0 0 0 359.603 68.33 Q 361.926 67.89 363.798 66.85 A 12.287 12.287 0 0 0 364.063 66.699 A 19.894 19.894 0 0 0 369.479 61.978 A 22.821 22.821 0 0 0 369.873 61.475 L 375.391 65.771 A 21.751 21.751 0 0 1 371.861 69.899 A 29.852 29.852 0 0 1 368.091 72.827 Q 363.33 75.977 355.469 75.977 A 27.873 27.873 0 0 1 348.98 75.252 A 22.007 22.007 0 0 1 342.651 72.681 A 22.554 22.554 0 0 1 334.204 63.623 A 26.476 26.476 0 0 1 331.452 54.592 A 33.45 33.45 0 0 1 331.201 50.439 Z M 672.022 50.439 L 672.022 48.34 A 37.478 37.478 0 0 1 672.608 41.536 Q 673.374 37.386 675.141 33.998 A 23.44 23.44 0 0 1 675.317 33.667 A 26.031 26.031 0 0 1 679.384 28.021 A 21.993 21.993 0 0 1 683.911 24.39 A 21.341 21.341 0 0 1 695.117 21.191 A 27.966 27.966 0 0 1 700.422 21.666 Q 704.533 22.461 707.544 24.585 Q 712.354 27.979 714.624 33.813 A 32.887 32.887 0 0 1 716.548 41.496 A 42.546 42.546 0 0 1 716.895 47.021 L 716.895 51.074 L 677.441 51.074 L 677.441 43.75 L 707.764 43.75 L 707.764 43.066 A 23.749 23.749 0 0 0 706.348 36.206 A 12.436 12.436 0 0 0 702.441 30.688 A 9.143 9.143 0 0 0 699.153 29.025 Q 697.364 28.516 695.117 28.516 A 11.906 11.906 0 0 0 687.866 30.835 A 13.413 13.413 0 0 0 684.608 34.329 A 18.567 18.567 0 0 0 682.935 37.573 A 22.848 22.848 0 0 0 681.67 42.057 Q 681.282 44.203 681.185 46.664 A 42.519 42.519 0 0 0 681.152 48.34 L 681.152 50.439 A 23.672 23.672 0 0 0 681.807 56.093 A 20.311 20.311 0 0 0 683.008 59.595 A 16.027 16.027 0 0 0 686.896 65.006 A 15.549 15.549 0 0 0 688.379 66.187 A 13.548 13.548 0 0 0 694.528 68.512 A 17.582 17.582 0 0 0 696.777 68.652 A 19.593 19.593 0 0 0 700.424 68.33 Q 702.746 67.89 704.619 66.85 A 12.287 12.287 0 0 0 704.883 66.699 A 19.894 19.894 0 0 0 710.299 61.978 A 22.821 22.821 0 0 0 710.693 61.475 L 716.211 65.771 A 21.751 21.751 0 0 1 712.681 69.899 A 29.852 29.852 0 0 1 708.911 72.827 Q 704.15 75.977 696.289 75.977 A 27.873 27.873 0 0 1 689.801 75.252 A 22.007 22.007 0 0 1 683.472 72.681 A 22.554 22.554 0 0 1 675.024 63.623 A 26.476 26.476 0 0 1 672.272 54.592 A 33.45 33.45 0 0 1 672.022 50.439 Z M 288.525 37.646 L 279.395 37.646 A 7.768 7.768 0 0 0 278.237 33.619 Q 277.576 32.51 276.538 31.445 A 9.242 9.242 0 0 0 272.294 29.004 Q 270.532 28.516 268.359 28.516 Q 264.648 28.516 262.329 29.663 Q 260.01 30.811 258.96 32.593 A 7.427 7.427 0 0 0 257.986 35.288 A 7.08 7.08 0 0 0 257.91 36.328 A 6.573 6.573 0 0 0 258.154 38.153 A 5.475 5.475 0 0 0 258.887 39.722 A 5.013 5.013 0 0 0 259.824 40.737 Q 260.791 41.548 262.373 42.241 A 17.007 17.007 0 0 0 262.476 42.285 A 24.178 24.178 0 0 0 264.313 42.978 Q 266.3 43.646 269.122 44.313 A 93.61 93.61 0 0 0 270.068 44.531 A 68.575 68.575 0 0 1 274.616 45.712 Q 276.813 46.369 278.662 47.115 A 32.597 32.597 0 0 1 280.762 48.047 Q 284.401 49.824 286.427 52.299 A 11.717 11.717 0 0 1 287.012 53.076 A 11.444 11.444 0 0 1 288.831 57.613 A 15.55 15.55 0 0 1 289.063 60.352 A 14.053 14.053 0 0 1 287.995 65.863 A 13.424 13.424 0 0 1 286.523 68.481 A 15.621 15.621 0 0 1 281.814 72.763 A 20.092 20.092 0 0 1 279.395 73.999 Q 274.805 75.977 268.604 75.977 A 32.578 32.578 0 0 1 263.285 75.566 Q 260.338 75.078 257.89 74.01 A 18.969 18.969 0 0 1 256.787 73.486 A 21.195 21.195 0 0 1 252.77 70.835 A 16.524 16.524 0 0 1 249.463 67.065 A 15.757 15.757 0 0 1 247.216 61.442 A 14.966 14.966 0 0 1 246.973 58.74 L 256.104 58.74 A 12.66 12.66 0 0 0 256.51 61.258 Q 256.936 62.813 257.775 63.993 A 7.457 7.457 0 0 0 258.276 64.624 Q 260.205 66.797 263.013 67.725 A 17.923 17.923 0 0 0 267.907 68.638 A 16.74 16.74 0 0 0 268.604 68.652 A 22.918 22.918 0 0 0 271.219 68.512 Q 272.557 68.358 273.693 68.035 A 11.699 11.699 0 0 0 274.829 67.651 A 10.733 10.733 0 0 0 276.671 66.717 Q 277.869 65.946 278.638 64.917 A 6.403 6.403 0 0 0 279.932 60.986 A 7.927 7.927 0 0 0 279.077 57.349 A 5.205 5.205 0 0 0 278.145 56.077 Q 277.649 55.569 276.972 55.091 A 13.036 13.036 0 0 0 275.635 54.272 A 15.715 15.715 0 0 0 273.787 53.444 Q 271.767 52.676 268.817 52.019 A 63.021 63.021 0 0 0 267.822 51.807 Q 262.581 50.715 258.609 49.095 A 36.513 36.513 0 0 1 257.69 48.706 Q 253.592 46.903 251.29 44.133 A 12.876 12.876 0 0 1 251.099 43.896 A 10.616 10.616 0 0 1 248.953 38.892 A 14.345 14.345 0 0 1 248.779 36.621 Q 248.779 32.422 251.196 28.931 A 15.935 15.935 0 0 1 255.466 24.776 A 20.515 20.515 0 0 1 258.032 23.315 A 21.056 21.056 0 0 1 263.805 21.542 A 28.354 28.354 0 0 1 268.359 21.191 A 30.352 30.352 0 0 1 273.389 21.587 Q 276.613 22.129 279.224 23.413 A 18.674 18.674 0 0 1 283.263 26.06 A 15.336 15.336 0 0 1 286.133 29.37 Q 288.525 33.105 288.525 37.646 Z M 95.898 58.301 L 104.541 58.301 A 15.908 15.908 0 0 1 101.592 66.701 A 19.153 19.153 0 0 1 101.367 67.017 A 21.635 21.635 0 0 1 94.329 73.196 A 25.124 25.124 0 0 1 93.75 73.511 A 21.699 21.699 0 0 1 83.841 75.974 A 25.355 25.355 0 0 1 83.447 75.977 Q 75.943 75.977 70.87 72.743 A 17.876 17.876 0 0 1 70.264 72.339 Q 65.039 68.701 62.476 62.695 A 32.369 32.369 0 0 1 59.963 51.579 A 37.914 37.914 0 0 1 59.912 49.609 L 59.912 47.559 A 34.304 34.304 0 0 1 61.027 38.696 A 30.363 30.363 0 0 1 62.5 34.448 Q 65.088 28.467 70.313 24.829 A 19.646 19.646 0 0 1 77.457 21.793 Q 80.187 21.201 83.347 21.192 A 34.319 34.319 0 0 1 83.447 21.191 A 25.875 25.875 0 0 1 89.094 21.781 A 20.208 20.208 0 0 1 94.312 23.706 A 19.013 19.013 0 0 1 101.636 30.542 Q 104.297 34.863 104.541 40.332 L 95.898 40.332 A 13.52 13.52 0 0 0 94.067 34.375 A 11.883 11.883 0 0 0 89.771 30.103 A 11.511 11.511 0 0 0 85.513 28.655 A 14.805 14.805 0 0 0 83.447 28.516 A 17.341 17.341 0 0 0 79.934 28.85 Q 77.77 29.298 76.107 30.346 A 9.76 9.76 0 0 0 74.78 31.348 Q 71.631 34.18 70.337 38.55 A 31.564 31.564 0 0 0 69.043 47.559 L 69.043 49.609 A 32.384 32.384 0 0 0 70.313 58.643 A 15.878 15.878 0 0 0 72.483 63.302 A 14.246 14.246 0 0 0 74.731 65.845 A 10.46 10.46 0 0 0 78.899 68.076 Q 80.482 68.526 82.368 68.625 A 20.699 20.699 0 0 0 83.447 68.652 A 13.497 13.497 0 0 0 88.494 67.714 A 12.937 12.937 0 0 0 89.404 67.31 A 12.292 12.292 0 0 0 93.897 63.623 Q 95.654 61.279 95.898 58.301 Z M 581.982 65.967 L 581.982 38.77 A 12.918 12.918 0 0 0 581.592 35.504 A 9.218 9.218 0 0 0 579.175 31.226 A 8.913 8.913 0 0 0 575.507 29.056 Q 574.13 28.617 572.468 28.48 A 19.118 19.118 0 0 0 570.898 28.418 A 16.5 16.5 0 0 0 567.917 28.675 A 12.497 12.497 0 0 0 564.966 29.59 A 11.701 11.701 0 0 0 562.823 30.843 A 8.908 8.908 0 0 0 560.986 32.666 A 7.1 7.1 0 0 0 559.786 35.114 A 6.694 6.694 0 0 0 559.57 36.816 L 550.44 36.816 A 11.683 11.683 0 0 1 551.773 31.462 A 15.57 15.57 0 0 1 553.027 29.419 A 17.455 17.455 0 0 1 557.092 25.429 A 23.149 23.149 0 0 1 560.327 23.511 A 21.973 21.973 0 0 1 566.338 21.604 A 30.05 30.05 0 0 1 571.436 21.191 A 28.948 28.948 0 0 1 576.788 21.665 A 22.22 22.22 0 0 1 581.641 23.145 A 15.41 15.41 0 0 1 588.599 29.028 Q 591.008 32.795 591.109 38.377 A 27.188 27.188 0 0 1 591.113 38.867 L 591.113 63.477 A 33.916 33.916 0 0 0 591.295 66.906 A 41.5 41.5 0 0 0 591.577 69.092 A 26.298 26.298 0 0 0 592.072 71.539 Q 592.377 72.734 592.778 73.756 A 15.09 15.09 0 0 0 592.969 74.219 L 592.969 75 L 583.447 75 Q 582.983 73.938 582.653 72.391 A 26.029 26.029 0 0 1 582.373 70.825 A 36.69 36.69 0 0 1 582.057 68.002 A 28.752 28.752 0 0 1 581.982 65.967 Z M 583.545 42.969 L 573.096 42.969 A 48.322 48.322 0 0 0 569.493 43.099 Q 561.102 43.726 555.762 47.388 A 14.062 14.062 0 0 0 550.144 54.757 A 17.93 17.93 0 0 0 549.316 60.352 A 14.655 14.655 0 0 0 551.538 68.262 Q 553.76 71.826 557.788 73.901 A 18.031 18.031 0 0 0 562.447 75.521 A 23.564 23.564 0 0 0 567.188 75.977 A 22.663 22.663 0 0 0 569.805 75.829 A 18.085 18.085 0 0 0 574.927 74.487 A 24.601 24.601 0 0 0 576.59 73.694 A 20.767 20.767 0 0 0 580.884 70.728 A 24.989 24.989 0 0 0 582.63 68.993 A 19.789 19.789 0 0 0 584.912 65.967 Q 586.426 63.477 586.768 61.426 L 582.861 57.08 A 7.076 7.076 0 0 1 582.747 57.98 Q 582.541 59.054 582.001 60.167 A 13.039 13.039 0 0 1 580.859 62.061 A 13.612 13.612 0 0 1 578.83 64.304 A 16.593 16.593 0 0 1 575.83 66.406 A 13.539 13.539 0 0 1 572.412 67.725 A 16.699 16.699 0 0 1 568.506 68.164 A 17.033 17.033 0 0 1 567.437 68.131 Q 565.878 68.033 564.583 67.641 A 8.186 8.186 0 0 1 561.011 65.527 Q 558.447 62.891 558.447 59.082 A 10.656 10.656 0 0 1 558.479 58.25 Q 558.673 55.774 560.047 53.985 A 8.792 8.792 0 0 1 562.647 51.758 A 15.292 15.292 0 0 1 566.194 50.297 Q 567.968 49.797 570.108 49.552 A 39.266 39.266 0 0 1 574.561 49.316 L 583.643 49.316 L 583.545 42.969 Z M 123.779 0 L 123.779 75 L 114.648 75 L 114.648 0 L 123.779 0 Z M 121.631 46.533 A 23.539 23.539 0 0 1 121.632 46.311 A 21.036 21.036 0 0 1 122.705 39.771 A 20.521 20.521 0 0 1 122.739 39.671 A 18.251 18.251 0 0 1 125.781 34.082 Q 127.783 31.592 130.518 30.176 A 12.237 12.237 0 0 1 132.669 29.309 A 13.828 13.828 0 0 1 136.621 28.76 A 19.383 19.383 0 0 1 137.325 28.772 Q 138.684 28.822 139.86 29.065 A 10.584 10.584 0 0 1 142.383 29.907 A 7.249 7.249 0 0 1 144.328 31.289 A 8.077 8.077 0 0 1 145.923 33.594 Q 146.708 35.26 146.978 37.62 A 23.5 23.5 0 0 1 147.119 40.283 L 147.119 75 L 156.25 75 L 156.25 40.381 A 39.581 39.581 0 0 0 156.106 36.921 Q 155.921 34.818 155.499 33.028 A 17.686 17.686 0 0 0 154.175 29.248 A 16.258 16.258 0 0 0 153.485 27.991 A 12.793 12.793 0 0 0 148.315 23.12 A 17.134 17.134 0 0 0 143.603 21.561 A 23.778 23.778 0 0 0 139.307 21.191 A 23.574 23.574 0 0 0 137.491 21.26 A 18.87 18.87 0 0 0 128.101 24.487 A 20.992 20.992 0 0 0 124.855 27.23 A 23.092 23.092 0 0 0 120.606 33.472 A 27.84 27.84 0 0 0 118.656 39.143 A 34.373 34.373 0 0 0 117.822 46.387 L 121.631 46.533 Z M 234.766 0 L 234.766 75 L 225.635 75 L 225.635 0 L 234.766 0 Z M 304.004 9.326 L 313.135 9.326 L 313.135 61.914 A 14.511 14.511 0 0 0 313.2 63.344 Q 313.368 65.033 313.965 66.016 Q 314.795 67.383 316.113 67.822 Q 317.432 68.262 318.945 68.262 A 14.495 14.495 0 0 0 320.547 68.169 A 17.262 17.262 0 0 0 321.314 68.066 A 48.056 48.056 0 0 0 321.895 67.972 Q 322.705 67.834 323.145 67.725 L 323.193 75 A 14.936 14.936 0 0 1 322.377 75.232 Q 321.95 75.341 321.452 75.448 A 36.123 36.123 0 0 1 320.386 75.659 Q 319.038 75.906 317.263 75.961 A 34.043 34.043 0 0 1 316.211 75.977 A 14.574 14.574 0 0 1 311.807 75.325 A 13.303 13.303 0 0 1 310.107 74.658 A 9.287 9.287 0 0 1 306.534 71.637 A 12.196 12.196 0 0 1 305.664 70.239 A 12.264 12.264 0 0 1 304.62 67.485 Q 304.274 66.132 304.122 64.523 A 28.356 28.356 0 0 1 304.004 61.865 L 304.004 9.326 Z M 644.824 9.326 L 653.955 9.326 L 653.955 61.914 A 14.511 14.511 0 0 0 654.021 63.344 Q 654.189 65.033 654.785 66.016 Q 655.615 67.383 656.934 67.822 Q 658.252 68.262 659.766 68.262 A 14.495 14.495 0 0 0 661.368 68.169 A 17.262 17.262 0 0 0 662.134 68.066 A 48.056 48.056 0 0 0 662.715 67.972 Q 663.525 67.834 663.965 67.725 L 664.014 75 A 14.936 14.936 0 0 1 663.197 75.232 Q 662.77 75.341 662.273 75.448 A 36.123 36.123 0 0 1 661.206 75.659 Q 659.859 75.906 658.083 75.961 A 34.043 34.043 0 0 1 657.031 75.977 A 14.574 14.574 0 0 1 652.628 75.325 A 13.303 13.303 0 0 1 650.928 74.658 A 9.287 9.287 0 0 1 647.354 71.637 A 12.196 12.196 0 0 1 646.484 70.239 A 12.264 12.264 0 0 1 645.441 67.485 Q 645.094 66.132 644.942 64.523 A 28.356 28.356 0 0 1 644.824 61.865 L 644.824 9.326 Z M 480.029 22.168 L 491.602 66.016 L 492.383 75 L 486.279 75 L 470.947 22.168 L 480.029 22.168 Z M 521.582 65.723 L 532.617 22.168 L 541.65 22.168 L 526.318 75 L 520.264 75 L 521.582 65.723 Z M 395.703 30.469 L 395.703 75 L 386.572 75 L 386.572 22.168 L 395.459 22.168 L 395.703 30.469 Z M 614.404 30.469 L 614.404 75 L 605.273 75 L 605.273 22.168 L 614.16 22.168 L 614.404 30.469 Z M 202.051 62.793 L 202.051 22.168 L 211.182 22.168 L 211.182 75 L 202.49 75 L 202.051 62.793 Z M 203.76 51.66 Q 203.76 56.299 202.295 60.107 Q 200.83 63.916 197.461 66.138 Q 194.092 68.359 188.33 68.359 Q 185.889 68.359 183.667 67.358 Q 181.445 66.357 180.054 63.745 A 7.837 7.837 0 0 1 180.038 63.715 Q 178.662 61.105 178.662 56.348 L 178.662 22.168 L 169.531 22.168 L 169.531 56.25 Q 169.531 66.797 174.316 71.387 A 15.853 15.853 0 0 0 181.254 75.276 A 21.351 21.351 0 0 0 186.865 75.977 Q 190.852 75.977 193.997 75.107 A 16.259 16.259 0 0 0 199.023 72.803 A 17.275 17.275 0 0 0 202.016 70.156 A 18.335 18.335 0 0 0 205.566 64.111 A 32.059 32.059 0 0 0 207.068 58.215 A 42.232 42.232 0 0 0 207.568 51.562 L 203.76 51.66 Z M 429.59 33.447 L 429.59 75 L 420.459 75 L 420.459 22.168 L 429.102 22.168 L 429.59 33.447 Z M 427.441 46.533 A 23.539 23.539 0 0 1 427.443 46.311 A 21.036 21.036 0 0 1 428.516 39.771 A 20.521 20.521 0 0 1 428.549 39.671 A 18.251 18.251 0 0 1 431.592 34.082 Q 433.594 31.592 436.328 30.176 A 12.237 12.237 0 0 1 438.48 29.309 A 13.828 13.828 0 0 1 442.432 28.76 A 19.383 19.383 0 0 1 443.136 28.772 Q 444.494 28.822 445.671 29.065 A 10.584 10.584 0 0 1 448.193 29.907 A 7.249 7.249 0 0 1 450.139 31.289 A 8.077 8.077 0 0 1 451.733 33.594 Q 452.519 35.26 452.788 37.62 A 23.5 23.5 0 0 1 452.93 40.283 L 452.93 75 L 462.061 75 L 462.061 40.381 A 39.581 39.581 0 0 0 461.917 36.921 Q 461.732 34.818 461.31 33.028 A 17.686 17.686 0 0 0 459.985 29.248 A 16.258 16.258 0 0 0 459.295 27.991 A 12.793 12.793 0 0 0 454.126 23.12 A 17.134 17.134 0 0 0 449.413 21.561 A 23.778 23.778 0 0 0 445.117 21.191 A 23.574 23.574 0 0 0 443.301 21.26 A 18.87 18.87 0 0 0 433.911 24.487 A 20.992 20.992 0 0 0 430.666 27.23 A 23.092 23.092 0 0 0 426.416 33.472 A 27.84 27.84 0 0 0 424.467 39.143 A 34.373 34.373 0 0 0 423.633 46.387 L 427.441 46.533 Z M 510.01 22.168 L 523.291 64.844 L 524.756 75 L 518.945 75 L 504.736 30.762 L 503.613 22.168 L 510.01 22.168 Z M 489.063 65.527 L 502.637 22.168 L 508.643 22.168 L 507.471 30.859 L 493.652 75 L 487.842 75 L 489.063 65.527 Z M 412.158 21.875 L 412.158 30.225 Q 410.986 29.98 409.985 29.907 A 25.992 25.992 0 0 0 408.988 29.855 Q 408.464 29.837 407.882 29.834 A 43.113 43.113 0 0 0 407.715 29.834 A 16.788 16.788 0 0 0 404.556 30.116 Q 402.572 30.496 400.976 31.388 A 10.454 10.454 0 0 0 400.708 31.543 Q 397.852 33.252 396.289 36.255 A 17.607 17.607 0 0 0 394.719 40.676 A 21.961 21.961 0 0 0 394.336 43.115 L 391.748 44.58 A 41.71 41.71 0 0 1 392.289 37.732 A 33.867 33.867 0 0 1 393.457 32.886 A 21.102 21.102 0 0 1 395.607 28.179 A 16.944 16.944 0 0 1 398.804 24.39 Q 402.441 21.191 408.154 21.191 Q 408.865 21.191 409.79 21.32 A 19.901 19.901 0 0 1 410.376 21.411 A 17.12 17.12 0 0 1 410.973 21.523 Q 411.792 21.692 412.158 21.875 Z M 630.859 21.875 L 630.859 30.225 Q 629.688 29.98 628.687 29.907 A 25.992 25.992 0 0 0 627.689 29.855 Q 627.165 29.837 626.583 29.834 A 43.113 43.113 0 0 0 626.416 29.834 A 16.788 16.788 0 0 0 623.257 30.116 Q 621.273 30.496 619.677 31.388 A 10.454 10.454 0 0 0 619.409 31.543 Q 616.553 33.252 614.99 36.255 A 17.607 17.607 0 0 0 613.42 40.676 A 21.961 21.961 0 0 0 613.037 43.115 L 610.449 44.58 A 41.71 41.71 0 0 1 610.99 37.732 A 33.867 33.867 0 0 1 612.158 32.886 A 21.102 21.102 0 0 1 614.308 28.179 A 16.944 16.944 0 0 1 617.505 24.39 Q 621.143 21.191 626.856 21.191 Q 627.566 21.191 628.491 21.32 A 19.901 19.901 0 0 1 629.077 21.411 A 17.12 17.12 0 0 1 629.674 21.523 Q 630.493 21.692 630.859 21.875 Z M 322.998 22.168 L 322.998 29.053 L 294.385 29.053 L 294.385 22.168 L 322.998 22.168 Z M 663.818 22.168 L 663.818 29.053 L 635.205 29.053 L 635.205 22.168 L 663.818 22.168 Z"
        vector-effect="non-scaling-stroke" />
    </g>

    <g id="mindenluebbecke" stroke-linecap="round" fill-rule="nonzero" font-size="9pt"
      class="fill name_fill stroke name_stroke">
      <path
        d="M 219.629 50.439 L 219.629 48.34 A 37.478 37.478 0 0 1 220.216 41.536 Q 220.982 37.386 222.749 33.998 A 23.44 23.44 0 0 1 222.925 33.667 A 26.031 26.031 0 0 1 226.992 28.021 A 21.993 21.993 0 0 1 231.519 24.39 A 21.341 21.341 0 0 1 242.725 21.191 A 27.966 27.966 0 0 1 248.03 21.666 Q 252.141 22.461 255.151 24.585 Q 259.961 27.979 262.231 33.813 A 32.887 32.887 0 0 1 264.156 41.496 A 42.546 42.546 0 0 1 264.502 47.021 L 264.502 51.074 L 225.049 51.074 L 225.049 43.75 L 255.371 43.75 L 255.371 43.066 A 23.749 23.749 0 0 0 253.955 36.206 A 12.436 12.436 0 0 0 250.049 30.688 A 9.143 9.143 0 0 0 246.76 29.025 Q 244.971 28.516 242.725 28.516 A 11.906 11.906 0 0 0 235.474 30.835 A 13.413 13.413 0 0 0 232.216 34.329 A 18.567 18.567 0 0 0 230.542 37.573 A 22.848 22.848 0 0 0 229.278 42.057 Q 228.889 44.203 228.792 46.664 A 42.519 42.519 0 0 0 228.76 48.34 L 228.76 50.439 A 23.672 23.672 0 0 0 229.414 56.093 A 20.311 20.311 0 0 0 230.615 59.595 A 16.027 16.027 0 0 0 234.503 65.006 A 15.549 15.549 0 0 0 235.986 66.187 A 13.548 13.548 0 0 0 242.135 68.512 A 17.582 17.582 0 0 0 244.385 68.652 A 19.593 19.593 0 0 0 248.031 68.33 Q 250.354 67.89 252.226 66.85 A 12.287 12.287 0 0 0 252.49 66.699 A 19.894 19.894 0 0 0 257.907 61.978 A 22.821 22.821 0 0 0 258.301 61.475 L 263.818 65.771 A 21.751 21.751 0 0 1 260.289 69.899 A 29.852 29.852 0 0 1 256.519 72.827 Q 251.758 75.977 243.896 75.977 A 27.873 27.873 0 0 1 237.408 75.252 A 22.007 22.007 0 0 1 231.079 72.681 A 22.554 22.554 0 0 1 222.632 63.623 A 26.476 26.476 0 0 1 219.88 54.592 A 33.45 33.45 0 0 1 219.629 50.439 Z M 576.807 50.439 L 576.807 48.34 A 37.478 37.478 0 0 1 577.393 41.536 Q 578.159 37.386 579.926 33.998 A 23.44 23.44 0 0 1 580.103 33.667 A 26.031 26.031 0 0 1 584.169 28.021 A 21.993 21.993 0 0 1 588.696 24.39 A 21.341 21.341 0 0 1 599.902 21.191 A 27.966 27.966 0 0 1 605.208 21.666 Q 609.318 22.461 612.329 24.585 Q 617.139 27.979 619.409 33.813 A 32.887 32.887 0 0 1 621.333 41.496 A 42.546 42.546 0 0 1 621.68 47.021 L 621.68 51.074 L 582.227 51.074 L 582.227 43.75 L 612.549 43.75 L 612.549 43.066 A 23.749 23.749 0 0 0 611.133 36.206 A 12.436 12.436 0 0 0 607.227 30.688 A 9.143 9.143 0 0 0 603.938 29.025 Q 602.149 28.516 599.902 28.516 A 11.906 11.906 0 0 0 592.651 30.835 A 13.413 13.413 0 0 0 589.393 34.329 A 18.567 18.567 0 0 0 587.72 37.573 A 22.848 22.848 0 0 0 586.455 42.057 Q 586.067 44.203 585.97 46.664 A 42.519 42.519 0 0 0 585.938 48.34 L 585.938 50.439 A 23.672 23.672 0 0 0 586.592 56.093 A 20.311 20.311 0 0 0 587.793 59.595 A 16.027 16.027 0 0 0 591.681 65.006 A 15.549 15.549 0 0 0 593.164 66.187 A 13.548 13.548 0 0 0 599.313 68.512 A 17.582 17.582 0 0 0 601.563 68.652 A 19.593 19.593 0 0 0 605.209 68.33 Q 607.531 67.89 609.404 66.85 A 12.287 12.287 0 0 0 609.668 66.699 A 19.894 19.894 0 0 0 615.084 61.978 A 22.821 22.821 0 0 0 615.479 61.475 L 620.996 65.771 A 21.751 21.751 0 0 1 617.466 69.899 A 29.852 29.852 0 0 1 613.696 72.827 Q 608.936 75.977 601.074 75.977 A 27.873 27.873 0 0 1 594.586 75.252 A 22.007 22.007 0 0 1 588.257 72.681 A 22.554 22.554 0 0 1 579.81 63.623 A 26.476 26.476 0 0 1 577.058 54.592 A 33.45 33.45 0 0 1 576.807 50.439 Z M 733.008 50.439 L 733.008 48.34 A 37.478 37.478 0 0 1 733.594 41.536 Q 734.361 37.386 736.127 33.998 A 23.44 23.44 0 0 1 736.304 33.667 A 26.031 26.031 0 0 1 740.371 28.021 A 21.993 21.993 0 0 1 744.897 24.39 A 21.341 21.341 0 0 1 756.104 21.191 A 27.966 27.966 0 0 1 761.409 21.666 Q 765.52 22.461 768.53 24.585 Q 773.34 27.979 775.61 33.813 A 32.887 32.887 0 0 1 777.534 41.496 A 42.546 42.546 0 0 1 777.881 47.021 L 777.881 51.074 L 738.428 51.074 L 738.428 43.75 L 768.75 43.75 L 768.75 43.066 A 23.749 23.749 0 0 0 767.334 36.206 A 12.436 12.436 0 0 0 763.428 30.688 A 9.143 9.143 0 0 0 760.139 29.025 Q 758.35 28.516 756.104 28.516 A 11.906 11.906 0 0 0 748.853 30.835 A 13.413 13.413 0 0 0 745.595 34.329 A 18.567 18.567 0 0 0 743.921 37.573 A 22.848 22.848 0 0 0 742.657 42.057 Q 742.268 44.203 742.171 46.664 A 42.519 42.519 0 0 0 742.139 48.34 L 742.139 50.439 A 23.672 23.672 0 0 0 742.793 56.093 A 20.311 20.311 0 0 0 743.994 59.595 A 16.027 16.027 0 0 0 747.882 65.006 A 15.549 15.549 0 0 0 749.365 66.187 A 13.548 13.548 0 0 0 755.514 68.512 A 17.582 17.582 0 0 0 757.764 68.652 A 19.593 19.593 0 0 0 761.41 68.33 Q 763.732 67.89 765.605 66.85 A 12.287 12.287 0 0 0 765.869 66.699 A 19.894 19.894 0 0 0 771.286 61.978 A 22.821 22.821 0 0 0 771.68 61.475 L 777.197 65.771 A 21.751 21.751 0 0 1 773.667 69.899 A 29.852 29.852 0 0 1 769.897 72.827 Q 765.137 75.977 757.275 75.977 A 27.873 27.873 0 0 1 750.787 75.252 A 22.007 22.007 0 0 1 744.458 72.681 A 22.554 22.554 0 0 1 736.011 63.623 A 26.476 26.476 0 0 1 733.259 54.592 A 33.45 33.45 0 0 1 733.008 50.439 Z M 810.889 50.439 L 810.889 48.34 A 37.478 37.478 0 0 1 811.475 41.536 Q 812.241 37.386 814.008 33.998 A 23.44 23.44 0 0 1 814.185 33.667 A 26.031 26.031 0 0 1 818.251 28.021 A 21.993 21.993 0 0 1 822.778 24.39 A 21.341 21.341 0 0 1 833.984 21.191 A 27.966 27.966 0 0 1 839.29 21.666 Q 843.4 22.461 846.411 24.585 Q 851.221 27.979 853.491 33.813 A 32.887 32.887 0 0 1 855.415 41.496 A 42.546 42.546 0 0 1 855.762 47.021 L 855.762 51.074 L 816.309 51.074 L 816.309 43.75 L 846.631 43.75 L 846.631 43.066 A 23.749 23.749 0 0 0 845.215 36.206 A 12.436 12.436 0 0 0 841.309 30.688 A 9.143 9.143 0 0 0 838.02 29.025 Q 836.231 28.516 833.984 28.516 A 11.906 11.906 0 0 0 826.733 30.835 A 13.413 13.413 0 0 0 823.475 34.329 A 18.567 18.567 0 0 0 821.802 37.573 A 22.848 22.848 0 0 0 820.537 42.057 Q 820.149 44.203 820.052 46.664 A 42.519 42.519 0 0 0 820.02 48.34 L 820.02 50.439 A 23.672 23.672 0 0 0 820.674 56.093 A 20.311 20.311 0 0 0 821.875 59.595 A 16.027 16.027 0 0 0 825.763 65.006 A 15.549 15.549 0 0 0 827.246 66.187 A 13.548 13.548 0 0 0 833.395 68.512 A 17.582 17.582 0 0 0 835.645 68.652 A 19.593 19.593 0 0 0 839.291 68.33 Q 841.613 67.89 843.486 66.85 A 12.287 12.287 0 0 0 843.75 66.699 A 19.894 19.894 0 0 0 849.166 61.978 A 22.821 22.821 0 0 0 849.561 61.475 L 855.078 65.771 A 21.751 21.751 0 0 1 851.548 69.899 A 29.852 29.852 0 0 1 847.778 72.827 Q 843.018 75.977 835.156 75.977 A 27.873 27.873 0 0 1 828.668 75.252 A 22.007 22.007 0 0 1 822.339 72.681 A 22.554 22.554 0 0 1 813.892 63.623 A 26.476 26.476 0 0 1 811.14 54.592 A 33.45 33.45 0 0 1 810.889 50.439 Z M 665.82 58.301 L 674.463 58.301 A 15.908 15.908 0 0 1 671.514 66.701 A 19.153 19.153 0 0 1 671.289 67.017 A 21.635 21.635 0 0 1 664.251 73.196 A 25.124 25.124 0 0 1 663.672 73.511 A 21.699 21.699 0 0 1 653.763 75.974 A 25.355 25.355 0 0 1 653.369 75.977 Q 645.865 75.977 640.791 72.743 A 17.876 17.876 0 0 1 640.186 72.339 Q 634.961 68.701 632.397 62.695 A 32.369 32.369 0 0 1 629.885 51.579 A 37.914 37.914 0 0 1 629.834 49.609 L 629.834 47.559 A 34.304 34.304 0 0 1 630.948 38.696 A 30.363 30.363 0 0 1 632.422 34.448 Q 635.01 28.467 640.234 24.829 A 19.646 19.646 0 0 1 647.379 21.793 Q 650.108 21.201 653.269 21.192 A 34.319 34.319 0 0 1 653.369 21.191 A 25.875 25.875 0 0 1 659.016 21.781 A 20.208 20.208 0 0 1 664.233 23.706 A 19.013 19.013 0 0 1 671.558 30.542 Q 674.219 34.863 674.463 40.332 L 665.82 40.332 A 13.52 13.52 0 0 0 663.989 34.375 A 11.883 11.883 0 0 0 659.692 30.103 A 11.511 11.511 0 0 0 655.435 28.655 A 14.805 14.805 0 0 0 653.369 28.516 A 17.341 17.341 0 0 0 649.856 28.85 Q 647.691 29.298 646.028 30.346 A 9.76 9.76 0 0 0 644.702 31.348 Q 641.553 34.18 640.259 38.55 A 31.564 31.564 0 0 0 638.965 47.559 L 638.965 49.609 A 32.384 32.384 0 0 0 640.234 58.643 A 15.878 15.878 0 0 0 642.405 63.302 A 14.246 14.246 0 0 0 644.653 65.845 A 10.46 10.46 0 0 0 648.821 68.076 Q 650.404 68.526 652.289 68.625 A 20.699 20.699 0 0 0 653.369 68.652 A 13.497 13.497 0 0 0 658.416 67.714 A 12.937 12.937 0 0 0 659.326 67.31 A 12.292 12.292 0 0 0 663.818 63.623 Q 665.576 61.279 665.82 58.301 Z M 917.041 64.258 L 937.939 3.906 L 948.242 3.906 L 921.924 75 L 914.6 75 L 917.041 64.258 Z M 897.559 3.906 L 918.262 64.258 L 920.85 75 L 913.525 75 L 887.256 3.906 L 897.559 3.906 Z M 693.75 0 L 693.75 75 L 684.619 75 L 684.619 0 L 693.75 0 Z M 466.797 0 L 475.928 0 L 475.928 64.746 L 475.146 75 L 466.797 75 L 466.797 0 Z M 522.949 0 L 532.08 0 L 532.08 64.746 L 531.299 75 L 522.949 75 L 522.949 0 Z M 368.701 3.906 L 368.701 75 L 359.229 75 L 359.229 3.906 L 368.701 3.906 Z M 511.572 48.145 L 511.572 49.17 A 42.625 42.625 0 0 1 510.974 56.47 A 32.868 32.868 0 0 1 509.18 62.939 A 24.05 24.05 0 0 1 506.128 68.502 A 19.936 19.936 0 0 1 502.197 72.485 A 17.018 17.018 0 0 1 493.881 75.803 A 22.303 22.303 0 0 1 491.064 75.977 A 24.552 24.552 0 0 1 486.006 75.483 Q 482.628 74.772 480.003 73.038 A 15.591 15.591 0 0 1 479.834 72.925 A 19.059 19.059 0 0 1 474.129 66.763 A 24.11 24.11 0 0 1 472.852 64.282 A 36.472 36.472 0 0 1 470.789 58.173 Q 470.073 55.273 469.684 51.976 A 60.742 60.742 0 0 1 469.58 51.025 L 469.58 46.289 Q 470.303 39.105 472.489 33.761 A 31.75 31.75 0 0 1 472.852 32.91 Q 475.342 27.295 479.81 24.243 A 16.976 16.976 0 0 1 485.898 21.695 Q 488.24 21.193 490.946 21.191 A 29.632 29.632 0 0 1 490.967 21.191 A 21.743 21.743 0 0 1 496.385 21.836 A 16.76 16.76 0 0 1 502.197 24.561 A 19.589 19.589 0 0 1 507.66 30.804 A 25.301 25.301 0 0 1 509.18 34.009 A 33.196 33.196 0 0 1 511.047 41.026 Q 511.564 44.316 511.572 48.027 A 54.091 54.091 0 0 1 511.572 48.145 Z M 502.441 49.17 L 502.441 48.145 A 36.794 36.794 0 0 0 501.983 42.221 A 30.127 30.127 0 0 0 501.123 38.452 A 16.826 16.826 0 0 0 499.467 34.617 A 13.383 13.383 0 0 0 496.802 31.396 Q 493.799 28.76 488.672 28.76 A 16.367 16.367 0 0 0 485.747 29.009 A 12.086 12.086 0 0 0 482.788 29.932 Q 480.273 31.104 478.516 33.081 A 16.884 16.884 0 0 0 475.659 37.573 Q 474.561 40.088 474.023 42.773 L 474.023 54.639 A 24.724 24.724 0 0 0 476.562 61.206 Q 478.32 64.355 481.323 66.357 A 11.563 11.563 0 0 0 485.397 68.029 A 16.34 16.34 0 0 0 488.77 68.359 A 14.869 14.869 0 0 0 492.167 67.992 A 10.296 10.296 0 0 0 496.655 65.747 A 14.18 14.18 0 0 0 500.14 61.096 A 18.231 18.231 0 0 0 501.05 58.789 A 29.058 29.058 0 0 0 502.262 52.84 A 36.441 36.441 0 0 0 502.441 49.17 Z M 567.725 48.145 L 567.725 49.17 A 42.625 42.625 0 0 1 567.126 56.47 A 32.868 32.868 0 0 1 565.332 62.939 A 24.05 24.05 0 0 1 562.28 68.502 A 19.936 19.936 0 0 1 558.35 72.485 A 17.018 17.018 0 0 1 550.034 75.803 A 22.303 22.303 0 0 1 547.217 75.977 A 24.552 24.552 0 0 1 542.158 75.483 Q 538.78 74.772 536.155 73.038 A 15.591 15.591 0 0 1 535.986 72.925 A 19.059 19.059 0 0 1 530.281 66.763 A 24.11 24.11 0 0 1 529.004 64.282 A 36.472 36.472 0 0 1 526.941 58.173 Q 526.225 55.273 525.837 51.976 A 60.742 60.742 0 0 1 525.732 51.025 L 525.732 46.289 Q 526.455 39.105 528.641 33.761 A 31.75 31.75 0 0 1 529.004 32.91 Q 531.494 27.295 535.962 24.243 A 16.976 16.976 0 0 1 542.051 21.695 Q 544.392 21.193 547.098 21.191 A 29.632 29.632 0 0 1 547.119 21.191 A 21.743 21.743 0 0 1 552.537 21.836 A 16.76 16.76 0 0 1 558.35 24.561 A 19.589 19.589 0 0 1 563.812 30.804 A 25.301 25.301 0 0 1 565.332 34.009 A 33.196 33.196 0 0 1 567.199 41.026 Q 567.716 44.316 567.724 48.027 A 54.091 54.091 0 0 1 567.725 48.145 Z M 558.594 49.17 L 558.594 48.145 A 36.794 36.794 0 0 0 558.135 42.221 A 30.127 30.127 0 0 0 557.275 38.452 A 16.826 16.826 0 0 0 555.62 34.617 A 13.383 13.383 0 0 0 552.954 31.396 Q 549.951 28.76 544.824 28.76 A 16.367 16.367 0 0 0 541.9 29.009 A 12.086 12.086 0 0 0 538.94 29.932 Q 536.426 31.104 534.668 33.081 A 16.884 16.884 0 0 0 531.812 37.573 Q 530.713 40.088 530.176 42.773 L 530.176 54.639 A 24.724 24.724 0 0 0 532.715 61.206 Q 534.473 64.355 537.476 66.357 A 11.563 11.563 0 0 0 541.549 68.029 A 16.34 16.34 0 0 0 544.922 68.359 A 14.869 14.869 0 0 0 548.32 67.992 A 10.296 10.296 0 0 0 552.808 65.747 A 14.18 14.18 0 0 0 556.292 61.096 A 18.231 18.231 0 0 0 557.202 58.789 A 29.058 29.058 0 0 0 558.414 52.84 A 36.441 36.441 0 0 0 558.594 49.17 Z M 163.281 49.17 L 163.281 48.145 A 42.068 42.068 0 0 1 163.853 41.04 A 31.012 31.012 0 0 1 165.894 34.009 A 24.826 24.826 0 0 1 168.996 28.644 A 20.028 20.028 0 0 1 173.193 24.561 A 17.95 17.95 0 0 1 182.63 21.244 A 22.485 22.485 0 0 1 184.18 21.191 A 23.854 23.854 0 0 1 189.213 21.695 A 16.834 16.834 0 0 1 195.264 24.243 A 19.13 19.13 0 0 1 200.75 30.108 A 24.507 24.507 0 0 1 202.222 32.91 Q 204.736 38.525 205.469 46.289 L 205.469 51.025 Q 204.736 58.691 202.246 64.282 A 22.315 22.315 0 0 1 199.207 69.306 A 18.411 18.411 0 0 1 195.288 72.925 Q 190.878 75.937 184.256 75.976 A 29.571 29.571 0 0 1 184.082 75.977 A 18.596 18.596 0 0 1 177.252 74.746 A 17.343 17.343 0 0 1 173.193 72.485 A 21.822 21.822 0 0 1 167.329 65.807 A 27.406 27.406 0 0 1 165.894 62.939 Q 163.281 56.885 163.281 49.17 Z M 198.779 64.746 L 199.561 75 L 207.91 75 L 207.91 0 L 198.779 0 L 198.779 64.746 Z M 172.412 48.145 L 172.412 49.17 A 33.528 33.528 0 0 0 172.868 54.809 A 27.123 27.123 0 0 0 173.853 58.789 A 16.895 16.895 0 0 0 175.737 62.756 A 13.879 13.879 0 0 0 178.369 65.747 A 10.733 10.733 0 0 0 183.251 68.065 A 15.292 15.292 0 0 0 186.328 68.359 Q 190.118 68.359 192.779 67.004 A 10.041 10.041 0 0 0 193.726 66.455 A 14.279 14.279 0 0 0 198.389 61.426 Q 200.146 58.301 201.123 54.639 L 201.123 42.773 A 27.713 27.713 0 0 0 199.438 37.573 Q 198.34 35.059 196.606 33.081 A 12.685 12.685 0 0 0 192.437 29.968 A 14.497 14.497 0 0 0 192.358 29.932 A 12.123 12.123 0 0 0 189.291 28.992 A 16.804 16.804 0 0 0 186.426 28.76 A 15.066 15.066 0 0 0 182.885 29.154 A 10.693 10.693 0 0 0 178.394 31.396 A 14.358 14.358 0 0 0 174.735 36.23 A 18.418 18.418 0 0 0 173.853 38.452 A 29.32 29.32 0 0 0 172.553 44.932 A 35.869 35.869 0 0 0 172.412 48.145 Z M 95.85 22.168 L 95.85 75 L 86.719 75 L 86.719 22.168 L 95.85 22.168 Z M 443.994 62.793 L 443.994 22.168 L 453.125 22.168 L 453.125 75 L 444.434 75 L 443.994 62.793 Z M 445.703 51.66 Q 445.703 56.299 444.238 60.107 Q 442.773 63.916 439.404 66.138 Q 436.035 68.359 430.273 68.359 Q 427.832 68.359 425.61 67.358 Q 423.389 66.357 421.997 63.745 A 7.837 7.837 0 0 1 421.981 63.715 Q 420.605 61.105 420.605 56.348 L 420.605 22.168 L 411.475 22.168 L 411.475 56.25 Q 411.475 66.797 416.26 71.387 A 15.853 15.853 0 0 0 423.198 75.276 A 21.351 21.351 0 0 0 428.809 75.977 Q 432.796 75.977 435.94 75.107 A 16.259 16.259 0 0 0 440.967 72.803 A 17.275 17.275 0 0 0 443.959 70.156 A 18.335 18.335 0 0 0 447.51 64.111 A 32.059 32.059 0 0 0 449.011 58.215 A 42.232 42.232 0 0 0 449.512 51.562 L 445.703 51.66 Z M 119.385 33.447 L 119.385 75 L 110.254 75 L 110.254 22.168 L 118.896 22.168 L 119.385 33.447 Z M 117.236 46.533 A 23.539 23.539 0 0 1 117.237 46.311 A 21.036 21.036 0 0 1 118.311 39.771 A 20.521 20.521 0 0 1 118.344 39.671 A 18.251 18.251 0 0 1 121.387 34.082 Q 123.389 31.592 126.123 30.176 A 12.237 12.237 0 0 1 128.275 29.309 A 13.828 13.828 0 0 1 132.227 28.76 A 19.383 19.383 0 0 1 132.931 28.772 Q 134.289 28.822 135.466 29.065 A 10.584 10.584 0 0 1 137.988 29.907 A 7.249 7.249 0 0 1 139.933 31.289 A 8.077 8.077 0 0 1 141.528 33.594 Q 142.313 35.26 142.583 37.62 A 23.5 23.5 0 0 1 142.725 40.283 L 142.725 75 L 151.855 75 L 151.855 40.381 A 39.581 39.581 0 0 0 151.712 36.921 Q 151.527 34.818 151.105 33.028 A 17.686 17.686 0 0 0 149.78 29.248 A 16.258 16.258 0 0 0 149.09 27.991 A 12.793 12.793 0 0 0 143.921 23.12 A 17.134 17.134 0 0 0 139.208 21.561 A 23.778 23.778 0 0 0 134.912 21.191 A 23.574 23.574 0 0 0 133.096 21.26 A 18.87 18.87 0 0 0 123.706 24.487 A 20.992 20.992 0 0 0 120.46 27.23 A 23.092 23.092 0 0 0 116.211 33.472 A 27.84 27.84 0 0 0 114.262 39.143 A 34.373 34.373 0 0 0 113.428 46.387 L 117.236 46.533 Z M 284.131 33.447 L 284.131 75 L 275 75 L 275 22.168 L 283.643 22.168 L 284.131 33.447 Z M 281.982 46.533 A 23.539 23.539 0 0 1 281.983 46.311 A 21.036 21.036 0 0 1 283.057 39.771 A 20.521 20.521 0 0 1 283.09 39.671 A 18.251 18.251 0 0 1 286.133 34.082 Q 288.135 31.592 290.869 30.176 A 12.237 12.237 0 0 1 293.021 29.309 A 13.828 13.828 0 0 1 296.973 28.76 A 19.383 19.383 0 0 1 297.677 28.772 Q 299.035 28.822 300.212 29.065 A 10.584 10.584 0 0 1 302.734 29.907 A 7.249 7.249 0 0 1 304.68 31.289 A 8.077 8.077 0 0 1 306.274 33.594 Q 307.059 35.26 307.329 37.62 A 23.5 23.5 0 0 1 307.471 40.283 L 307.471 75 L 316.602 75 L 316.602 40.381 A 39.581 39.581 0 0 0 316.458 36.921 Q 316.273 34.818 315.851 33.028 A 17.686 17.686 0 0 0 314.526 29.248 A 16.258 16.258 0 0 0 313.836 27.991 A 12.793 12.793 0 0 0 308.667 23.12 A 17.134 17.134 0 0 0 303.954 21.561 A 23.778 23.778 0 0 0 299.658 21.191 A 23.574 23.574 0 0 0 297.842 21.26 A 18.87 18.87 0 0 0 288.452 24.487 A 20.992 20.992 0 0 0 285.206 27.23 A 23.092 23.092 0 0 0 280.957 33.472 A 27.84 27.84 0 0 0 279.008 39.143 A 34.373 34.373 0 0 0 278.174 46.387 L 281.982 46.533 Z M 725.977 22.168 L 703.027 46.777 L 690.039 60.156 L 689.307 50.586 L 698.584 39.6 L 714.893 22.168 L 725.977 22.168 Z M 717.676 75 L 698.877 49.756 L 703.613 41.748 L 728.418 75 L 717.676 75 Z M 402.393 67.383 L 402.393 75 L 366.846 75 L 366.846 67.383 L 402.393 67.383 Z M 349.072 41.064 L 349.072 48.438 L 325.195 48.438 L 325.195 41.064 L 349.072 41.064 Z M 866.81 68.161 A 5.402 5.402 0 0 1 867.896 66.382 A 4.634 4.634 0 0 1 870.201 65.018 Q 870.939 64.823 871.817 64.798 A 9.116 9.116 0 0 1 872.07 64.795 A 7.774 7.774 0 0 1 873.734 64.962 Q 875.321 65.309 876.294 66.382 A 5.508 5.508 0 0 1 877.729 69.98 A 7.108 7.108 0 0 1 877.734 70.264 A 5.777 5.777 0 0 1 877.418 72.208 A 5.071 5.071 0 0 1 876.294 74.023 A 4.591 4.591 0 0 1 874.249 75.247 Q 873.528 75.465 872.663 75.519 A 9.46 9.46 0 0 1 872.07 75.537 A 7.887 7.887 0 0 1 870.424 75.376 Q 869.405 75.158 868.637 74.647 A 4.353 4.353 0 0 1 867.896 74.023 A 5.181 5.181 0 0 1 866.461 70.559 A 6.785 6.785 0 0 1 866.455 70.264 A 6.049 6.049 0 0 1 866.81 68.161 Z M 946.399 68.161 A 5.402 5.402 0 0 1 947.485 66.382 A 4.634 4.634 0 0 1 949.791 65.018 Q 950.529 64.823 951.407 64.798 A 9.116 9.116 0 0 1 951.66 64.795 A 7.774 7.774 0 0 1 953.324 64.962 Q 954.91 65.309 955.884 66.382 A 5.508 5.508 0 0 1 957.319 69.98 A 7.108 7.108 0 0 1 957.324 70.264 A 5.777 5.777 0 0 1 957.008 72.208 A 5.071 5.071 0 0 1 955.884 74.023 A 4.591 4.591 0 0 1 953.838 75.247 Q 953.118 75.465 952.253 75.519 A 9.46 9.46 0 0 1 951.66 75.537 A 7.887 7.887 0 0 1 950.014 75.376 Q 948.995 75.158 948.227 74.647 A 4.353 4.353 0 0 1 947.485 74.023 A 5.181 5.181 0 0 1 946.051 70.559 A 6.785 6.785 0 0 1 946.045 70.264 A 6.049 6.049 0 0 1 946.399 68.161 Z M 416.797 8.008 Q 416.797 5.859 418.164 4.346 A 4.377 4.377 0 0 1 420.302 3.063 Q 421.02 2.865 421.882 2.837 A 8.83 8.83 0 0 1 422.168 2.832 A 7.32 7.32 0 0 1 423.744 2.991 Q 424.755 3.214 425.503 3.749 A 4.15 4.15 0 0 1 426.172 4.346 A 5.258 5.258 0 0 1 427.539 7.941 A 6.702 6.702 0 0 1 427.539 8.008 A 5.119 5.119 0 0 1 426.172 11.597 Q 424.909 12.972 422.562 13.077 A 8.839 8.839 0 0 1 422.168 13.086 A 7.436 7.436 0 0 1 420.592 12.929 Q 419.605 12.715 418.868 12.208 A 4.129 4.129 0 0 1 418.164 11.597 A 5.119 5.119 0 0 1 416.797 8.008 Z M 438.199 6.059 A 5.21 5.21 0 0 1 439.185 4.443 Q 440.527 2.93 443.164 2.93 Q 445.801 2.93 447.192 4.443 A 5.218 5.218 0 0 1 448.584 8.105 Q 448.584 10.205 447.192 11.694 A 4.479 4.479 0 0 1 445.051 12.952 Q 444.323 13.151 443.453 13.179 A 8.978 8.978 0 0 1 443.164 13.184 A 7.46 7.46 0 0 1 441.642 13.038 Q 440.108 12.718 439.185 11.694 Q 437.842 10.205 437.842 8.105 A 5.714 5.714 0 0 1 438.199 6.059 Z M 86.392 6.059 A 5.21 5.21 0 0 1 87.378 4.443 Q 88.721 2.93 91.357 2.93 Q 93.994 2.93 95.386 4.443 A 5.218 5.218 0 0 1 96.777 8.105 Q 96.777 10.205 95.386 11.694 A 4.479 4.479 0 0 1 93.244 12.952 Q 92.517 13.151 91.646 13.179 A 8.978 8.978 0 0 1 91.357 13.184 A 7.46 7.46 0 0 1 89.836 13.038 Q 88.301 12.718 87.378 11.694 Q 86.035 10.205 86.035 8.105 A 5.714 5.714 0 0 1 86.392 6.059 Z"
        vector-effect="non-scaling-stroke" />
    </g>

    <g id="name">
      <g transform="translate(0.09477402231215 36.90626039068968)">
        <text x="115.19501388763399" y="0" font-size="24.6px" font-size-old="23.458093267832712px"
          class="name fill text_fill" text-anchor="middle" style="white-space: pre;" direction="ltr"
          dominant-baseline="text-before-edge">Minden-Lübbecke e.V.</text>
      </g>
      <g transform="translate(0.33783427177826 0.49084224736049)">
        <text x="114.87434560968369" y="0" font-size="33px" font-size-old="29.436091770968297px"
          class="name fill text_fill" text-anchor="middle" style="white-space: pre;" direction="ltr"
          dominant-baseline="text-before-edge">Schulsternwarte</text>
      </g>
    </g>
  </defs>

  <!-- Background -->
  <rect x="0" y="0" width="593.812915772755" height="155.22887697548055" class="fill background_fill"></rect>
  <!-- Moon -->
  <g stroke-linecap="round">
    <g transform="translate(180.26345841766573 63.907899103648646) rotate(0 -27.77109715352205 -22.772293734411193)"
      fill-rule="evenodd">
      <path
        d="M-0.31 1.34 L4.91 -15.04 L4.88 -21.02 L4.67 -28.12 L-5.99 -40.32 L-15.64 -49.6 L-28.25 -50.38 L-40.99 -45.17 L-54.62 -35.11 L-59.61 -24.53 L-63.93 -16.18 L-60.74 -10.15 L-58.99 -4.07 L-36.03 0.15 L-14.69 2.63 L-9.01 4.35 L-0.41 0.41"
        stroke="none" stroke-width="0" fill-rule="evenodd" class="fill moon_fill"></path>
      <path
        d="M-0.41 1.06 C0.13 -1.06, 3.57 -7.49, 4.08 -12.57 C4.6 -17.64, 5.98 -23.54, 2.68 -29.38 C-0.63 -35.21, -8.02 -44.84, -15.75 -47.58 C-23.48 -50.31, -36.61 -49.47, -43.73 -45.8 C-50.84 -42.12, -56.27 -32.22, -58.44 -25.53 C-60.62 -18.84, -64.04 -10.74, -56.79 -5.64 C-49.53 -0.54, -24.3 4.17, -14.92 5.07 C-5.54 5.96, -2.86 0.61, -0.51 -0.28 M1.57 0.57 C2.41 -1.93, 6.28 -9.68, 6.28 -14.43 C6.28 -19.18, 5.27 -22.06, 1.58 -27.93 C-2.11 -33.79, -8.59 -46.63, -15.86 -49.63 C-23.12 -52.62, -34.61 -49.79, -42 -45.89 C-49.38 -42, -57.84 -33.26, -60.16 -26.25 C-62.49 -19.24, -63.38 -9.08, -55.96 -3.82 C-48.53 1.44, -25.16 4.98, -15.63 5.32 C-6.1 5.65, -1.32 -0.79, 1.21 -1.81"
        stroke-width="1" fill="none" class="stroke moon_stroke"></path>
    </g>
  </g>
  <mask></mask>
  <!-- Telescope -->
  <g stroke-linecap="round" display="">
    <!-- Stand-->
    <g stroke-linecap="round">
      <g stroke-linecap="round">
        <g transform="translate(144.02705072051737 74.42759580616229) rotate(0 13.422802852778489 -11.879790500266196)">
          <path
            d="M0.76 0.15 C3.32 -3.57, 11.14 -21.99, 15.54 -22.29 C19.94 -22.58, 25.43 -5.1, 27.14 -1.63 M-0.29 -0.81 C2.13 -4.86, 10.32 -23.91, 14.84 -23.91 C19.36 -23.91, 25 -4.67, 26.83 -0.82"
            stroke-width="1" fill="none" class="stroke telescope_stroke telescope_stand_stroke"></path>
        </g>
      </g>
      <g stroke-linecap="round">
        <g transform="translate(157.45596781011233 74.5993032988278) rotate(0 0.8828615625675127 -12.149996685399117)">
          <path d="M0.46 0.95 C0.76 -3.29, 2.4 -20.91, 2.52 -25.25 M-0.75 0.4 C-0.61 -3.73, 1.87 -20.11, 2.03 -24.21"
            stroke-width="1" fill="none" class="stroke telescope_stroke telescope_stand_stroke"></path>
        </g>
      </g>
      <g stroke-linecap="round"
        transform="translate(156.9942292506476 42.60405247935418) rotate(0 2.660611053433229 3.9909165801497153)">
        <path
          d="M2.58 -0.69 C3.27 -0.91, 3.91 -0.33, 4.44 0.35 C4.97 1.03, 5.55 2.62, 5.76 3.39 C5.97 4.15, 5.99 4.29, 5.72 4.96 C5.45 5.63, 4.63 7.04, 4.15 7.41 C3.66 7.77, 3.43 7.25, 2.8 7.15 C2.17 7.06, 0.94 7.53, 0.37 6.83 C-0.2 6.12, -0.75 3.87, -0.6 2.95 C-0.45 2.02, 0.51 1.78, 1.27 1.28 C2.04 0.79, 3.5 0.19, 4 -0.02 C4.5 -0.22, 4.3 -0.1, 4.26 0.06 M3.71 0.74 C4.24 0.84, 5.95 1.12, 6.29 1.78 C6.63 2.44, 6.13 3.56, 5.76 4.7 C5.38 5.84, 4.4 8.14, 4.03 8.62 C3.66 9.09, 4.12 7.68, 3.53 7.55 C2.93 7.43, 1.22 8.55, 0.46 7.87 C-0.3 7.19, -1.17 4.53, -1.01 3.45 C-0.86 2.37, 0.99 2.06, 1.39 1.4 C1.79 0.74, 0.83 -0.21, 1.41 -0.52 C1.99 -0.84, 4.41 -0.78, 4.88 -0.5 C5.35 -0.22, 4.3 1.11, 4.24 1.16"
          stroke="none" stroke-width="0" class="fill telescope_fill telescope_stand_fill"></path>
        <path
          d="M1.38 0.28 C2.07 0.22, 3.52 0.2, 4.28 0.69 C5.04 1.18, 5.65 2.45, 5.93 3.24 C6.21 4.02, 6.3 4.76, 5.95 5.4 C5.6 6.05, 4.44 6.84, 3.83 7.12 C3.21 7.39, 2.86 7.11, 2.26 7.04 C1.65 6.98, 0.6 7.17, 0.18 6.73 C-0.24 6.29, -0.43 5.13, -0.26 4.41 C-0.09 3.69, 0.77 3.1, 1.19 2.4 C1.62 1.69, 1.93 0.69, 2.3 0.18 C2.68 -0.33, 3.59 -0.7, 3.45 -0.67 M3.26 0.14 C3.66 -0.09, 3.85 -0.56, 4.04 -0.19 C4.23 0.18, 4.44 1.13, 4.4 2.35 C4.36 3.57, 3.98 6.37, 3.8 7.11 C3.63 7.86, 3.61 6.66, 3.33 6.83 C3.06 7, 2.76 8.12, 2.17 8.16 C1.58 8.2, -0.03 7.95, -0.18 7.06 C-0.34 6.17, 1.03 4.06, 1.25 2.82 C1.47 1.57, 1.13 0.25, 1.12 -0.4 C1.12 -1.06, 1 -1.21, 1.22 -1.11 C1.43 -1.02, 2.36 -0.12, 2.42 0.16"
          stroke-width="1" fill="none" class="stroke telescope_stroke telescope_stand_stroke"></path>
      </g>
    </g>
    <mask></mask>
    <!-- Tube-->
    <g stroke-linecap="round">
      <g stroke-linecap="round">
        <g transform="translate(135.15834720907384 47.64977777916587) rotate(0 25.490582811310418 -16.110316548371955)"
          fill-rule="evenodd">
          <path
            d="M-1.78 -0.94 L49.02 -14.71 L54.18 -16.41 L56.84 -21.05 L52.64 -29.19 L48.14 -33.87 L39.97 -29.48 L2.75 -9.71 L-3.7 -3.79 L-0.32 -1.35"
            stroke="none" stroke-width="0" fill-rule="evenodd" class="fill telescope_fill telescope_tube_fill"></path>
          <path
            d="M-0.46 -0.8 C7.39 -3.16, 38.89 -10.88, 47.99 -15.11 C57.1 -19.35, 54.75 -23.73, 54.18 -26.22 C53.61 -28.72, 53.76 -33.44, 44.57 -30.1 C35.38 -26.75, 6.44 -11.14, -0.96 -6.17 C-8.37 -1.19, 0.03 -1.27, 0.13 -0.24 M1.5 1.4 C9.66 -0.76, 41.62 -9.1, 50.29 -14.06 C58.97 -19.02, 54.43 -25.34, 53.54 -28.36 C52.65 -31.37, 54.2 -36, 44.94 -32.16 C35.68 -28.31, 5.21 -10.41, -2.01 -5.29 C-9.23 -0.16, 1.26 -2.07, 1.61 -1.41"
            stroke-width="1" fill="none" class="stroke telescope_stroke telescope_tube_stroke"></path>
        </g>
      </g>
      <g stroke-linecap="round">
        <g transform="translate(182.82377439782488 15.162178401725583) rotate(0 2.947219178659367 8.163165874668053)">
          <path
            d="M-0.79 -0.92 C-0.8 0.61, -1.93 5.39, -0.55 8.42 C0.82 11.44, 6.02 15.78, 7.45 17.25 M1 1.2 C0.89 2.44, -2.34 4.13, -1.37 6.5 C-0.41 8.87, 5.12 13.96, 6.8 15.4"
            stroke-width="1" fill="none" class="stroke telescope_stroke telescope_tube_stroke"></path>
        </g>
      </g>
    </g>
    <mask></mask>
  </g>
  <!-- Wiehen -->
  <g stroke-linecap="round">
    <g stroke-linecap="round">
      <g transform="translate(165.02201768278962 68.28740808748745) rotate(0 53.672938308775514 -4.979091163232837)">
        <path
          d="M0.25 0.4 C10.62 -1.58, 43.45 -13.44, 61.48 -12.76 C79.51 -12.09, 100.72 1.77, 108.43 4.45 M-1.08 -0.44 C9.23 -2.66, 42.45 -14.9, 60.65 -14.39 C78.84 -13.89, 100.19 -0.51, 108.09 2.59"
          stroke-width="1" fill="none" class="stroke wiehen_stroke"></path>
      </g>
    </g>
    <!-- Wilhelm -->
    <g stroke-linecap="round" display="">
      <g stroke-linecap="round">
        <g transform="translate(207.42304515374303 57.857052810603534) rotate(0 8.935538141367374 -0.4673110579233679)">
          <path d="M1.15 -0.38 C4.13 -0.4, 15.07 -0.56, 17.57 -0.55 M0.3 -1.63 C3.2 -1.45, 13.89 0.3, 16.94 0.69"
            stroke-width="1" fill="none" class="stroke wiehen_stroke wiehen_wilhelm_stroke"></path>
        </g>
      </g>
      <mask></mask>
      <g stroke-linecap="round">
        <g transform="translate(210.12084322442956 57.857052810603534) rotate(0 1.6474019385846645 -4.504988855446456)">
          <path d="M0.61 -0.55 C0.67 -2.29, 1.42 -9.14, 1.52 -10.78 M-0.53 1.77 C-0.18 0.24, 3.14 -7.63, 3.82 -9.44"
            stroke-width="1" fill="none" class="stroke wiehen_stroke wiehen_wilhelm_stroke"></path>
        </g>
      </g>
      <mask></mask>
      <g stroke-linecap="round">
        <g
          transform="translate(215.9018390901872 57.471653086219646) rotate(0 -0.21480269670610141 -5.3818535038193005)">
          <path d="M-0.79 -0.37 C-1.13 -2.01, -1.42 -8.61, -1.45 -10.39 M1 -1.61 C0.96 -3, 1.21 -7.43, 0.7 -8.85"
            stroke-width="1" fill="none" class="stroke wiehen_stroke wiehen_wilhelm_stroke"></path>
        </g>
      </g>
      <mask></mask>
      <g stroke-linecap="round">
        <g
          transform="translate(221.29743523156162 57.471653086219646) rotate(0 -1.3723131175627827 -5.328164237902712)">
          <path d="M-1.07 0.02 C-1.49 -1.7, -2.94 -8.95, -3.32 -10.67 M0.57 -1.02 C0.62 -2.56, -0.1 -8.11, -0.93 -9.48"
            stroke-width="1" fill="none" class="stroke wiehen_stroke wiehen_wilhelm_stroke"></path>
        </g>
      </g>
      <mask></mask>
      <g stroke-linecap="round"
        transform="translate(210.48000415489855 45.883422560789086) rotate(0 5.010196416990141 1.3488990353434929)">
        <path d="M-1.11 0.03 L8.31 -1.09 L8.97 1.49 L2.14 4.68 L2.43 -0.94" stroke="none" stroke-width="0"
          class="fill wiehen_fill wiehen_wilhelm_fill">
        </path>
        <path
          d="M0.67 0 M0.67 0 C4.3 -0.29, 6.51 0.5, 9.35 0 M0.67 0 C2.88 0.07, 4.87 -0.23, 9.35 0 M9.35 0 C8.25 -0.71, 11.6 0.83, 10.02 0.67 M9.35 0 C9.46 -0.45, 10.5 -1.38, 10.02 0.67 M10.02 0.67 C10.09 1.04, 9.91 1.26, 10.02 2.02 M10.02 0.67 C10.04 0.93, 10.06 1.25, 10.02 2.02 M10.02 2.02 C10.29 1.35, 8.96 4.52, 9.35 2.7 M10.02 2.02 C11.71 1.22, 10.66 1.02, 9.35 2.7 M9.35 2.7 C7.16 2.7, 5.66 2.62, 0.67 2.7 M9.35 2.7 C6.8 2.59, 4.64 2.72, 0.67 2.7 M0.67 2.7 C0.79 4.32, 0.66 2.27, 0 2.02 M0.67 2.7 C-1.61 4.35, -1.2 4.09, 0 2.02 M0 2.02 C-0.13 1.45, 0.08 1.13, 0 0.67 M0 2.02 C-0.04 1.73, 0 1.42, 0 0.67 M0 0.67 C-0.43 -1.24, -0.03 -0.33, 0.67 0 M0 0.67 C-0.56 -1.41, 1.65 1.11, 0.67 0"
          stroke-width="1" fill="none" class="stroke wiehen_stroke wiehen_wilhelm_stroke"></path>
      </g>
      <g stroke-linecap="round">
        <g transform="translate(213.20404101950066 45.524261630320154) rotate(0 1.2817245411566205 -2.240492661483671)">
          <path d="M-0.63 -0.32 C0.01 -0.66, 2.53 -1.98, 3.19 -2.66 M1.24 -1.54 C1.85 -2.12, 2.39 -3.85, 2.71 -4.16"
            stroke-width="1" fill="none" class="stroke wiehen_stroke wiehen_wilhelm_stroke"></path>
        </g>
      </g>
      <mask></mask>
      <g stroke-linecap="round">
        <g
          transform="translate(217.82883771210686 45.524261630320154) rotate(0 -0.38815656910838925 -1.9985744086784507)">
          <path d="M0.88 1.19 C0.78 0.38, -0.89 -4.11, -1.26 -5.19 M-0.12 0.77 C-0.23 0.14, -1.4 -3.1, -1.66 -3.95"
            stroke-width="1" fill="none" class="stroke wiehen_stroke wiehen_wilhelm_stroke"></path>
        </g>
      </g>
      <mask></mask>
    </g>
  </g>
  <mask></mask>
  <!-- Weser -->
  <g stroke-linecap="round" display="">
    <g transform="translate(39.54323897288208 72.02919921858586) rotate(0 70.80193668296553 -8.606724406899929)">
      <path
        d="M0.23 0.94 C7.88 -1.88, 22.39 -16.26, 46.14 -16.52 C69.88 -16.79, 126.7 -3.33, 142.71 -0.65 M-1.11 0.39 C6.43 -2.79, 21.76 -18.18, 45.61 -18.16 C69.47 -18.13, 125.91 -2.6, 142.02 0.54"
        stroke-width="1" fill="none" class="stroke weser_stroke"></path>
    </g>
    <!-- Tower -->
    <g stroke-linecap="round" display="">
      <g stroke-linecap="round">
        <g transform="translate(99.65265826659964 59.31327235439849) rotate(0 -0.9928922975073249 -9.939383731996543)">
          <path
            d="M-0.21 0.86 C-0.39 -2.52, 0.04 -17.3, -0.13 -20.74 M-1.78 0.26 C-2.18 -2.89, -1.42 -15.68, -0.92 -19.34"
            stroke-width="1" fill="none" class="stroke weser_stroke weser_tower_stroke"></path>
        </g>
      </g>
      <g stroke-linecap="round">
        <g transform="translate(94.0563644675612 51.30682509155767) rotate(0 4.85887701996532 -0.5578592553890616)">
          <path d="M0.31 -0.28 C1.75 -0.33, 6.97 0.61, 8.4 0.56 M-0.98 -1.47 C0.86 -1.93, 9.21 -1.52, 10.7 -1.19"
            stroke-width="1" fill="none" class="stroke weser_stroke weser_tower_stroke"></path>
        </g>
      </g>
      <g stroke-linecap="round">
        <g transform="translate(96.45882807727185 44.686079093346024) rotate(0 2.550606506733857 -0.03913510529271491)">
          <path d="M0 0 C0.85 -0.01, 4.25 -0.07, 5.1 -0.08 M0 0 C0.85 -0.01, 4.25 -0.07, 5.1 -0.08" stroke-width="1"
            fill="none" class="stroke weser_stroke weser_tower_stroke"></path>
        </g>
      </g>
    </g>
    <mask></mask>
  </g>
  <mask></mask>
  <!-- Ground -->
  <g stroke-linecap="round">
    <g transform="translate(10 72.68921618519929) rotate(0 150.3900775469798 -0.16293616202273142)">
      <path d="M0 0 C50.13 -0.05, 250.65 -0.27, 300.78 -0.33 M0 0 C50.13 -0.05, 250.65 -0.27, 300.78 -0.33"
        stroke-width="1" fill="none" class="stroke ground_stroke"></path>
    </g>
  </g>
  <mask></mask>
  <!-- Text -->
  <use id="name_below" href="#name" transform="translate(41,75)" />
  <use id="name_right" href="#name" transform="translate(331,8)" />
  <!-- 
  <use id="name_below" href="#schulsternwarte" transform="translate(39,80) scale(0.33)" /> 
  -->
  <!--
  <use id="name_below2" href="#mindenluebbecke" transform="translate(39,100) scale(0.33)" /> 
  -->
</svg>